<?xml version="1.0" standalone="no"?>
<!DOCTYPE svg PUBLIC "-//W3C//DTD SVG 20010904//EN"
 "http://www.w3.org/TR/2001/REC-SVG-20010904/DTD/svg10.dtd">
<svg version="1.0" xmlns="http://www.w3.org/2000/svg"
 width="225.000000pt" height="225.000000pt" viewBox="0 0 225.000000 225.000000"
 preserveAspectRatio="xMidYMid meet">

<g transform="translate(0.000000,225.000000) scale(0.100000,-0.100000)"
fill="#000000" stroke="none">
<path d="M950 1951 c-275 -58 -507 -256 -613 -521 -143 -359 -7 -789 317
-1004 506 -337 1188 -53 1300 543 112 590 -416 1106 -1004 982z m385 -121 c74
-23 176 -74 232 -117 l34 -26 -48 -49 c-66 -68 -177 -150 -268 -199 -42 -23
-77 -40 -79 -38 -1 2 -17 31 -36 64 -43 77 -140 223 -202 303 -33 42 -44 64
-36 67 81 31 297 28 403 -5z m-402 -198 c64 -89 167 -256 167 -271 0 -11 -85
-37 -190 -57 -93 -19 -298 -20 -408 -4 l-84 13 6 31 c10 52 83 187 134 247 56
65 132 131 199 171 l48 28 35 -38 c19 -22 61 -75 93 -120z m834 -150 c46 -82
81 -193 90 -284 5 -62 4 -71 -9 -65 -9 3 -53 11 -98 18 -81 11 -333 7 -392 -7
-23 -5 -29 -2 -37 17 -5 13 -21 50 -35 81 l-25 57 72 39 c90 49 214 142 287
213 l55 54 28 -30 c16 -16 44 -59 64 -93z m-547 -368 c0 -7 -12 -15 -27 -19
-52 -13 -176 -75 -259 -130 -99 -67 -222 -185 -289 -279 l-49 -69 -39 43 c-98
111 -156 266 -164 438 -3 61 -4 112 -2 112 2 0 40 -7 84 -15 173 -31 443 -14
610 40 l70 22 33 -66 c17 -36 32 -71 32 -77z m553 -78 c37 -7 70 -16 74 -20
10 -10 -22 -129 -52 -193 -13 -29 -40 -77 -59 -106 -54 -82 -206 -224 -226
-212 -4 3 -11 30 -15 61 -8 69 -55 261 -89 369 -14 44 -26 85 -26 90 0 6 14
13 32 16 61 12 292 8 361 -5z m-469 -143 c38 -119 82 -307 92 -395 l7 -57 -74
-23 c-63 -19 -95 -23 -209 -22 -117 0 -145 4 -212 26 -79 26 -196 86 -217 111
-22 27 127 207 249 301 88 68 267 163 312 165 13 1 25 -24 52 -106z"/>
</g>
</svg>
