<?xml version="1.0" standalone="no"?>
<!DOCTYPE svg PUBLIC "-//W3C//DTD SVG 20010904//EN"
 "http://www.w3.org/TR/2001/REC-SVG-20010904/DTD/svg10.dtd">
<svg version="1.0" xmlns="http://www.w3.org/2000/svg"
 width="157.000000pt" height="321.000000pt" viewBox="0 0 157.000000 321.000000"
 preserveAspectRatio="xMidYMid meet">

<g transform="translate(0.000000,321.000000) scale(0.100000,-0.100000)"
fill="#000000" stroke="none">
<path d="M982 3090 c-225 -41 -396 -160 -482 -333 -61 -124 -70 -182 -70 -479
l0 -258 -185 0 -185 0 0 -255 0 -255 185 0 185 0 0 -700 0 -700 270 0 270 0 0
700 0 700 259 0 258 0 7 88 c3 48 9 162 12 255 l7 167 -272 0 -271 0 0 230 c0
247 4 274 51 317 39 35 94 43 290 43 l186 0 6 158 c11 263 10 309 -10 317 -29
11 -454 15 -511 5z"/>
</g>
</svg>
