<?xml version="1.0" standalone="no"?>
<!DOCTYPE svg PUBLIC "-//W3C//DTD SVG 20010904//EN"
 "http://www.w3.org/TR/2001/REC-SVG-20010904/DTD/svg10.dtd">
<svg version="1.0" xmlns="http://www.w3.org/2000/svg"
 width="1280.000000pt" height="720.000000pt" viewBox="0 0 1280.000000 720.000000"
 preserveAspectRatio="xMidYMid meet">

<g transform="translate(0.000000,720.000000) scale(0.100000,-0.100000)"
fill="#000000" stroke="none">
<path d="M4154 5321 c-54 -25 -101 -83 -114 -143 -15 -71 -14 -2988 1 -3059 9
-39 22 -64 53 -97 56 -59 97 -68 294 -68 l157 1 3 1283 c1 705 4 1282 6 1282
4 0 379 -272 681 -494 55 -40 183 -134 285 -208 383 -278 676 -492 706 -515
l31 -23 299 218 c1040 759 1403 1022 1407 1022 2 0 4 -577 4 -1282 l0 -1283
179 0 c164 1 182 3 220 22 51 27 90 72 104 121 8 26 10 500 8 1567 -3 1529 -3
1530 -24 1570 -11 22 -40 53 -63 70 -39 27 -49 30 -144 33 l-102 3 -105 -79
c-164 -123 -1770 -1292 -1779 -1295 -7 -2 -164 112 -1421 1027 l-474 346 -86
0 c-61 0 -96 -6 -126 -19z"/>
</g>
</svg>
