<?xml version="1.0" standalone="no"?>
<!DOCTYPE svg PUBLIC "-//W3C//DTD SVG 20010904//EN"
 "http://www.w3.org/TR/2001/REC-SVG-20010904/DTD/svg10.dtd">
<svg version="1.0" xmlns="http://www.w3.org/2000/svg"
 width="225.000000pt" height="225.000000pt" viewBox="0 0 225.000000 225.000000"
 preserveAspectRatio="xMidYMid meet">

<g transform="translate(0.000000,225.000000) scale(0.100000,-0.100000)"
fill="#000000" stroke="none">
<path d="M1072 2087 c-22 -23 -22 -26 -22 -455 l0 -432 -433 0 -434 0 -21 -23
c-29 -31 -29 -77 1 -105 23 -22 26 -22 455 -22 l432 0 0 -433 0 -434 23 -21
c31 -29 77 -29 105 1 22 23 22 26 22 455 l0 432 433 0 434 0 21 23 c29 31 29
77 -1 105 -23 22 -26 22 -455 22 l-432 0 0 433 0 434 -23 21 c-31 29 -77 29
-105 -1z"/>
</g>
</svg>
